<svg width="405" height="440" viewBox="0 0 405 440" fill="none" xmlns="http://www.w3.org/2000/svg">
<path d="M228.355 3.2976C231.095 5.5344 232.951 7.34313 234.514 10.5569C236.042 13.221 236.042 13.221 238.809 13.6914C242.069 13.7726 245.321 13.8259 248.582 13.8093C249.71 13.8538 250.839 13.8983 252.001 13.9441C258.123 14.0838 258.123 14.0838 263.281 11.2441C264.874 9.15164 264.874 9.15164 266.073 6.9563C268.792 2.50167 273.233 1.24743 278.144 0.0593232C286.83 -0.620525 294.802 4.68132 302.019 8.87182C302.938 9.38874 303.857 9.90565 304.804 10.4382C311.766 14.4377 318.472 18.7277 320.812 26.8914C321.745 32.0207 320.956 34.9121 318.769 39.6218C317.61 42.6518 316.851 44.7751 317.926 47.9172C319.974 51.9951 322.541 55.6938 325.222 59.3767C326.269 60.9968 326.269 60.9968 327.16 63.8523C327.526 64.56 327.892 65.2677 328.269 65.9968C331.319 67.0053 331.319 67.0053 334.894 67.3718C341.622 68.5875 346.079 70.4777 350.269 75.9968C352.437 80.2906 352.606 84.3598 352.64 89.0789C352.649 89.8519 352.658 90.6249 352.668 91.4213C352.682 93.0526 352.691 94.684 352.695 96.3154C352.706 98.7916 352.756 101.265 352.806 103.741C352.953 118.08 352.953 118.08 348.598 123.654C343.515 128.79 339.073 129.544 332.074 130.016C328.843 131.146 328.628 131.667 327.094 134.558C326.492 135.693 325.889 136.828 325.269 137.997C325.881 137.986 326.494 137.975 327.124 137.963C333.549 137.852 339.974 137.777 346.399 137.722C348.791 137.697 351.183 137.663 353.574 137.62C357.03 137.558 360.485 137.53 363.941 137.509C364.995 137.483 366.048 137.457 367.134 137.43C376.964 137.427 386.507 140.357 393.746 147.278C401.67 156.219 404.713 165.265 404.588 177.14C403.952 184.829 401.74 192.162 399.703 199.579C399.225 201.363 398.748 203.148 398.273 204.933C397.023 209.615 395.753 214.291 394.479 218.966C393.208 223.647 391.957 228.333 390.705 233.018C388.345 241.828 385.948 250.628 383.527 259.421C382.739 262.282 381.957 265.145 381.183 268.01C380.28 271.347 379.358 274.679 378.429 278.009C378.19 278.908 377.95 279.807 377.703 280.733C374.414 292.266 368.542 300.367 358.043 306.243C347.428 311.363 335.441 311.677 323.889 312.693C322.144 312.85 320.398 313.008 318.653 313.166C313.939 313.593 309.224 314.012 304.509 314.43C299.566 314.87 294.623 315.315 289.68 315.76C281.385 316.505 273.09 317.246 264.794 317.984C255.209 318.837 245.624 319.695 236.039 320.557C225.821 321.476 215.602 322.39 205.383 323.304C202.443 323.567 199.503 323.831 196.563 324.095C191.943 324.509 187.324 324.921 182.704 325.331C181.01 325.482 179.316 325.633 177.623 325.786C175.309 325.994 172.995 326.199 170.681 326.403C168.74 326.576 168.74 326.576 166.759 326.753C163.581 326.975 160.454 327.043 157.269 326.997C158.309 330.691 159.38 334.376 160.457 338.059C160.749 339.098 161.041 340.136 161.341 341.206C163.362 348.049 165.362 354.159 171.367 358.52C172.015 358.801 172.664 359.082 173.332 359.372C173.983 359.668 174.634 359.965 175.304 360.27C179.641 361.874 183.431 362.125 188.07 362.135C188.753 362.138 189.436 362.141 190.14 362.143C192.429 362.152 194.717 362.153 197.006 362.155C198.647 362.159 200.288 362.164 201.929 362.17C205.462 362.181 208.995 362.19 212.528 362.196C218.112 362.207 223.696 362.227 229.279 362.249C245.157 362.311 261.035 362.365 276.912 362.398C285.682 362.417 294.451 362.445 303.221 362.486C307.863 362.507 312.505 362.523 317.146 362.525C321.509 362.527 325.871 362.543 330.234 362.569C331.837 362.577 333.44 362.579 335.044 362.575C337.228 362.571 339.411 362.586 341.595 362.605C342.819 362.608 344.042 362.611 345.303 362.615C348.269 362.997 348.269 362.997 350.159 364.4C351.537 366.382 351.702 367.595 351.707 369.997C351.726 370.677 351.745 371.358 351.765 372.059C351.269 373.997 351.269 373.997 349.667 375.594C346.448 377.477 344.131 377.377 340.408 377.384C339.373 377.393 339.373 377.393 338.318 377.401C336.006 377.415 333.695 377.408 331.384 377.401C329.726 377.407 328.069 377.414 326.411 377.422C321.907 377.44 317.402 377.438 312.898 377.433C309.133 377.43 305.369 377.436 301.604 377.442C292.716 377.456 283.828 377.454 274.94 377.443C265.786 377.431 256.633 377.445 247.48 377.472C239.612 377.494 231.745 377.501 223.877 377.495C219.182 377.492 214.488 377.494 209.793 377.511C205.371 377.527 200.95 377.523 196.528 377.504C194.912 377.5 193.296 377.504 191.68 377.514C177.976 377.596 167.193 375.366 156.707 365.934C148.924 357.722 146.659 346.041 143.882 335.395C143.469 333.84 143.054 332.284 142.639 330.729C141.746 327.378 140.859 324.025 139.977 320.671C138.554 315.263 137.118 309.857 135.68 304.453C134.145 298.681 132.611 292.91 131.082 287.137C127.314 272.915 123.519 258.702 119.707 244.493C119.434 243.475 119.16 242.457 118.879 241.409C116.397 232.156 113.913 222.904 111.428 213.653C109.793 207.567 108.16 201.481 106.527 195.395C106.262 194.407 105.996 193.418 105.723 192.4C102.198 179.256 98.7086 166.103 95.2547 152.941C93.9416 147.942 92.622 142.944 91.3025 137.947C90.0923 133.36 88.8938 128.77 87.7047 124.177C86.9813 121.394 86.2468 118.614 85.5092 115.834C85.0198 113.976 84.5439 112.114 84.0687 110.252C81.8159 101.824 79.0426 93.7669 71.2691 88.9968C63.8533 85.5853 56.6305 85.5856 48.5894 85.6257C46.6192 85.6128 44.649 85.5999 42.6788 85.5856C37.8554 85.5557 33.032 85.5591 28.2085 85.561C25.4864 85.5611 22.7647 85.5506 20.0427 85.5293C17.4864 85.5105 14.9299 85.5088 12.3736 85.5255C10.6457 85.5105 10.6457 85.5105 8.88284 85.4951C7.86852 85.4953 6.8542 85.4955 5.80914 85.4956C3.26908 84.9968 3.26908 84.9968 1.44556 83.1532C-0.168331 80.1951 -0.215245 78.3179 0.269075 74.9968C2.38799 72.2332 3.57298 71.1229 7.03656 70.4956C8.09894 70.4955 9.16132 70.4953 10.2559 70.4951C11.4646 70.4857 12.6733 70.4764 13.9186 70.4667C15.2228 70.4779 16.527 70.4892 17.8706 70.5007C19.231 70.5006 20.5914 70.4991 21.9518 70.4963C24.805 70.4949 27.6577 70.5075 30.5108 70.5303C34.142 70.5585 37.7724 70.556 41.4036 70.5432C44.2161 70.5362 47.0283 70.5441 49.8408 70.5564C51.8224 70.5631 53.8041 70.5588 55.7858 70.5543C68.3859 70.6845 77.6936 73.3206 87.2105 81.7078C95.9905 90.6964 98.4372 104.513 101.491 116.339C102.09 118.656 102.701 120.969 103.314 123.282C103.702 124.762 104.089 126.243 104.476 127.723C104.657 128.411 104.838 129.098 105.025 129.807C105.75 132.629 106.269 135.068 106.269 137.997C128.049 137.667 149.829 137.337 172.269 136.997C171.609 135.017 170.949 133.037 170.269 130.997C168.966 130.85 168.966 130.85 167.636 130.7C159.71 129.671 154.651 128.567 149.019 122.622C144.484 115.819 144.929 108.538 144.953 100.684C144.957 98.5684 144.933 96.4541 144.908 94.3386C144.905 92.976 144.905 91.6134 144.906 90.2507C144.903 89.0268 144.9 87.803 144.897 86.542C145.537 80.4422 147.96 75.4287 152.269 70.9968C156.548 68.2107 160.138 67.6319 165.121 67.5007C168.192 66.7804 169.275 65.4217 171.269 62.9968C172.542 60.8461 173.747 58.6547 174.894 56.4343C176.59 53.1729 178.23 50.056 180.269 46.9968C180.003 43.9346 179.492 41.481 178.207 38.6843C176.336 33.3234 176.508 28.0307 178.769 22.8093C183.056 15.4676 191.614 11.3929 198.769 7.24682C199.572 6.766 200.375 6.28518 201.203 5.78979C209.895 0.732083 219.088 -2.48115 228.355 3.2976ZM222.894 83.0593C218.605 90.8126 217.86 99.2152 219.957 107.817C223.241 116.767 228.77 122.747 237.269 126.997C245.814 130.259 253.222 129.67 261.625 126.321C270.033 122.111 275.278 115.211 278.582 106.559C280.413 97.0694 279.013 89.0457 273.867 80.7312C268.567 73.9415 261.221 69.7012 252.699 68.489C239.695 68.0677 230.814 72.8471 222.894 83.0593Z" fill="#1B2644"/>
<path d="M110.269 151.997C133.699 151.997 157.129 151.997 181.269 151.997C180.269 156.997 180.269 156.997 179.207 159.309C177.42 164.431 177.605 169.096 179.644 174.059C185.314 184.059 202.539 192.42 213.269 195.997C219.513 196.526 224.179 195.854 229.269 191.997C230.873 189.968 232.256 187.94 233.554 185.704C236.194 183.076 238.606 183.279 242.269 182.997C243.006 182.927 243.744 182.857 244.504 182.784C259.245 181.526 259.245 181.526 263.886 184.899C265.558 187.191 266.906 189.514 268.269 191.997C273.396 195.812 277.936 196.426 284.269 195.997C289.901 193.849 295.083 191.006 300.332 188.059C301.108 187.63 301.885 187.2 302.685 186.757C313.091 181.423 313.091 181.423 319.269 171.997C320.067 165.321 319.941 159.81 316.269 153.997C316.269 153.337 316.269 152.677 316.269 151.997C323.528 151.88 330.787 151.792 338.047 151.738C341.419 151.712 344.79 151.677 348.162 151.62C352.049 151.559 355.936 151.531 359.824 151.509C361.617 151.47 361.617 151.47 363.446 151.43C371.14 151.428 376.826 152.659 383.269 156.997C385.523 159.313 385.523 159.313 386.832 161.559C387.287 162.303 387.742 163.047 388.21 163.813C391.658 170.924 390.493 178.373 388.46 185.751C388.263 186.501 388.065 187.251 387.861 188.024C387.194 190.539 386.513 193.049 385.832 195.559C385.35 197.357 384.868 199.154 384.388 200.951C383.594 203.915 382.799 206.878 381.999 209.84C380.175 216.593 378.382 223.354 376.61 230.121C375.113 235.84 373.605 241.556 372.09 247.271C371.149 250.824 370.212 254.379 369.286 257.937C368.403 261.327 367.505 264.714 366.598 268.098C366.104 269.953 365.625 271.812 365.146 273.672C363.055 281.401 360.839 286.862 354.707 292.247C344.56 297.412 332.854 297.844 321.694 298.806C319.951 298.964 318.209 299.122 316.466 299.28C311.769 299.706 307.071 300.12 302.372 300.532C297.44 300.966 292.509 301.41 287.577 301.853C279.303 302.595 271.029 303.329 262.753 304.059C253.198 304.902 243.644 305.753 234.09 306.61C223.894 307.525 213.697 308.434 203.5 309.341C200.571 309.602 197.642 309.864 194.713 310.125C190.107 310.537 185.5 310.945 180.894 311.349C179.207 311.498 177.521 311.648 175.834 311.799C173.526 312.006 171.217 312.208 168.908 312.41C167.618 312.524 166.329 312.638 165 312.755C161.069 313.01 157.207 313.038 153.269 312.997C151.154 306.875 149.312 300.726 147.656 294.465C147.413 293.556 147.17 292.647 146.92 291.71C146.12 288.711 145.323 285.711 144.527 282.712C143.957 280.575 143.387 278.438 142.817 276.302C141.311 270.654 139.807 265.006 138.305 259.357C135.946 250.491 133.583 241.627 131.219 232.763C130.34 229.465 129.462 226.167 128.584 222.869C125.581 211.6 122.554 200.339 119.487 189.087C119.182 187.967 118.877 186.848 118.563 185.694C117.105 180.339 115.642 174.986 114.173 169.635C113.654 167.733 113.135 165.831 112.616 163.929C112.257 162.629 112.257 162.629 111.891 161.304C111.675 160.512 111.46 159.72 111.238 158.904C111.05 158.217 110.862 157.531 110.668 156.824C110.269 154.997 110.269 154.997 110.269 151.997Z" fill="#1A73E8"/>
<path d="M221.269 14.9968C222.992 16.739 222.992 16.739 224.331 18.8718C227.105 22.8582 229.15 25.3318 234.101 26.3875C240.144 27.1917 246.305 27.1561 252.394 27.2468C253.241 27.2683 254.088 27.2898 254.961 27.312C260.751 27.3419 264.998 26.4396 270.269 23.9968C272.578 21.6938 272.578 21.6938 274.269 18.9968C277.622 14.1288 277.622 14.1288 280.374 13.5671C284.727 14.2133 287.935 16.399 291.644 18.6843C292.738 19.3369 292.738 19.3369 293.855 20.0027C298.489 22.7958 302.904 25.8005 307.269 28.9968C306.515 35.5264 306.515 35.5264 305.253 37.9343C303.22 42.1939 303.468 47.4832 304.886 51.9343C305.907 54.0312 307.068 55.9965 308.269 57.9968C309.195 59.6791 309.195 59.6791 310.14 61.3953C310.828 62.638 311.517 63.8802 312.206 65.1218C312.53 65.708 312.854 66.2942 313.187 66.8982C315.84 71.5656 318.789 76.5504 323.519 79.3093C326.715 80.1085 329.797 80.3324 333.085 80.4578C336.174 81.2202 337.29 82.5248 339.269 84.9968C339.771 87.9736 339.771 87.9736 339.765 91.407C339.766 92.6438 339.766 93.8807 339.767 95.155C339.747 96.4435 339.727 97.7319 339.706 99.0593C339.714 100.352 339.721 101.644 339.728 102.975C339.664 112.464 339.664 112.464 337.895 114.852C335.012 116.881 331.679 116.853 328.253 117.274C323.52 118.42 319.787 119.977 316.841 123.897C315.489 126.161 314.269 128.456 313.081 130.809C312.255 132.378 311.428 133.947 310.601 135.516C310.212 136.275 309.823 137.034 309.422 137.816C308.348 139.847 307.191 141.797 305.995 143.759C303.559 148.327 303.552 151.944 304.269 156.997C304.947 158.97 304.947 158.97 305.831 160.747C307.523 164.571 307.449 166.035 306.269 169.997C304.139 171.871 304.139 171.871 301.351 173.427C300.344 173.994 299.336 174.561 298.298 175.145C297.237 175.715 296.175 176.285 295.081 176.872C294.039 177.465 292.997 178.058 291.923 178.669C283.063 183.558 283.063 183.558 277.269 182.997C275.511 181.352 275.511 181.352 274.144 179.184C271.438 174.988 269.074 172.599 264.269 170.997C260.07 170.746 255.871 170.726 251.665 170.702C250.285 170.69 248.905 170.67 247.525 170.64C236.244 170.379 236.244 170.379 226.269 174.997C224.469 177.044 223.261 179.047 221.886 181.387C220.269 182.997 220.269 182.997 217.503 183.273C213.868 182.963 212.003 182.074 208.906 180.188C207.937 179.606 206.968 179.024 205.97 178.425C204.976 177.809 203.981 177.194 202.956 176.559C201.943 175.948 200.929 175.336 199.884 174.706C192.505 170.233 192.505 170.233 191.269 168.997C190.903 165.246 191.328 162.631 192.831 159.247C194.775 154.257 194.823 150.13 193.269 144.997C191.467 141.561 189.468 138.357 187.327 135.122C185.563 132.444 184.047 129.781 182.581 126.934C179.899 122.068 177.201 119.677 171.894 117.809C168.26 116.928 168.26 116.928 164.456 116.559C162.879 116.281 162.879 116.281 161.269 115.997C158.103 111.248 158.935 106.132 158.953 100.545C158.956 98.5038 158.933 96.4638 158.908 94.4226C158.907 93.1374 158.906 91.8522 158.906 90.5281C158.903 89.3479 158.9 88.1678 158.897 86.9519C159.269 83.9968 159.269 83.9968 160.622 82.1255C163.726 79.9978 167.507 80.1227 171.163 79.7195C175.471 78.7171 178.785 77.0826 181.409 73.3936C182.465 71.5427 183.411 69.6685 184.331 67.7468C185.009 66.402 185.689 65.0582 186.37 63.7156C186.693 63.0736 187.016 62.4317 187.348 61.7703C188.518 59.517 189.83 57.3792 191.206 55.2468C194.158 50.596 194.633 47.4569 194.269 41.9968C193.284 39.6572 192.284 37.3235 191.269 34.9968C190.769 31.8093 190.769 31.8093 191.269 28.9968C195.545 25.0049 200.695 22.1508 205.706 19.1843C206.54 18.6693 207.373 18.1544 208.232 17.6238C216.206 12.9151 216.206 12.9151 221.269 14.9968ZM222.894 83.0593C218.605 90.8126 217.86 99.2152 219.956 107.817C223.241 116.767 228.77 122.747 237.269 126.997C245.814 130.259 253.222 129.67 261.624 126.321C270.033 122.111 275.278 115.211 278.581 106.559C280.413 97.0694 279.013 89.0457 273.867 80.7312C268.567 73.9415 261.221 69.7012 252.699 68.489C239.694 68.0677 230.814 72.8471 222.894 83.0593Z" fill="#979797"/>
<path d="M276.269 63.9969C285.022 71.4268 291.299 80.3523 292.47 91.9925C293.431 105.581 291.281 117.306 282.214 128.001C273.848 136.585 264.218 141.996 252.126 142.289C239.726 142.395 229.758 140.498 220.269 131.997C219.664 131.495 219.06 130.994 218.437 130.477C210.129 123.038 205.953 112.316 205.054 101.384C204.584 88.0904 209.377 76.5701 218.324 66.8484C234.208 51.7296 258.87 50.9992 276.269 63.9969ZM222.894 83.0594C218.605 90.8126 217.86 99.2152 219.956 107.817C223.241 116.767 228.77 122.747 237.269 126.997C245.814 130.259 253.222 129.67 261.624 126.321C270.033 122.111 275.278 115.211 278.581 106.559C280.413 97.0694 279.013 89.0458 273.867 80.7312C268.567 73.9415 261.221 69.7012 252.699 68.4891C239.694 68.0678 230.814 72.8472 222.894 83.0594Z" fill="#152243"/>
<path d="M186.769 391.997C193.08 395.651 196.998 401.124 199.269 407.997C200.35 416.679 199.393 423.802 194.269 430.997C189.27 436.558 182.996 439.402 175.636 439.997C168.06 439.997 162.223 437.718 156.675 432.497C151.715 427.245 149.751 421.714 148.832 414.622C149.936 405.472 152.863 399.486 159.953 393.555C167.761 388.301 178.261 388.163 186.769 391.997Z" fill="#172445"/>
<path d="M329.527 392.606C336.037 397.803 340.502 403.854 341.546 412.219C341.883 420.073 339.253 426.935 334.269 432.997C328.179 438.207 320.851 440.28 312.882 439.876C305.549 438.634 299.484 434.723 294.831 428.997C291.068 421.772 289.804 414.533 291.921 406.532C294.669 399.634 299.111 394.995 305.331 391.059C312.692 388.395 322.764 388.485 329.527 392.606Z" fill="#192546"/>
<path d="M193.394 207.934C196.731 209.167 197.495 209.972 199.269 212.997C199.663 215.691 199.663 215.691 199.689 218.803C199.705 219.971 199.721 221.139 199.737 222.343C199.737 223.6 199.737 224.858 199.738 226.153C199.745 227.447 199.753 228.742 199.761 230.076C199.774 232.813 199.776 235.549 199.77 238.286C199.764 241.791 199.795 245.294 199.835 248.798C199.867 252.145 199.863 255.493 199.863 258.841C199.887 260.727 199.887 260.727 199.912 262.651C199.903 263.819 199.894 264.987 199.884 266.19C199.886 267.217 199.888 268.245 199.89 269.303C199.269 271.997 199.269 271.997 196.926 274.36C194.269 275.997 194.269 275.997 191.144 275.997C187.776 274.825 187.048 274.027 185.269 270.997C184.875 268.348 184.875 268.348 184.849 265.298C184.833 264.153 184.817 263.008 184.801 261.829C184.801 260.597 184.8 259.364 184.8 258.094C184.793 256.825 184.785 255.555 184.777 254.246C184.766 251.56 184.762 248.875 184.768 246.189C184.774 242.755 184.743 239.321 184.703 235.887C184.671 232.602 184.675 229.317 184.675 226.032C184.659 224.802 184.642 223.571 184.625 222.304C184.702 212.814 184.702 212.814 187.611 209.686C190.269 207.997 190.269 207.997 193.394 207.934Z" fill="#232B41"/>
<path d="M250.394 207.934C254.059 209.289 254.595 210.527 256.269 213.997C256.663 216.728 256.663 216.728 256.689 219.718C256.705 220.842 256.721 221.967 256.737 223.126C256.737 224.331 256.737 225.536 256.738 226.778C256.745 228.024 256.753 229.271 256.761 230.555C256.774 233.86 256.772 237.166 256.766 240.472C256.769 242.495 256.787 244.518 256.811 246.541C256.854 250.433 256.863 254.324 256.863 258.216C256.887 260.024 256.887 260.024 256.912 261.868C256.835 271.164 256.835 271.164 253.927 274.296C251.269 275.997 251.269 275.997 248.144 275.997C245.173 274.964 244.118 274.467 242.269 271.997C241.875 269.385 241.875 269.385 241.849 266.212C241.833 265.024 241.817 263.836 241.801 262.612C241.801 261.327 241.8 260.043 241.8 258.719C241.789 256.742 241.789 256.742 241.777 254.725C241.764 251.935 241.762 249.146 241.768 246.355C241.774 242.783 241.743 239.211 241.703 235.639C241.671 232.228 241.675 228.818 241.675 225.407C241.659 224.125 241.642 222.842 241.625 221.521C241.635 220.33 241.644 219.138 241.654 217.911C241.652 216.863 241.65 215.815 241.647 214.735C242.269 211.997 242.269 211.997 244.612 209.631C247.269 207.997 247.269 207.997 250.394 207.934Z" fill="#232B41"/>
<path d="M309.269 208.997C310.896 210.186 310.896 210.186 312.269 211.997C312.657 214.608 312.657 214.608 312.673 217.782C312.686 218.97 312.698 220.158 312.712 221.382C312.709 222.666 312.706 223.951 312.703 225.274C312.708 226.592 312.713 227.91 312.719 229.268C312.727 232.058 312.725 234.848 312.715 237.638C312.704 241.211 312.724 244.782 312.753 248.355C312.776 251.765 312.769 255.176 312.765 258.587C312.782 260.51 312.782 260.51 312.799 262.473C312.79 263.664 312.78 264.855 312.771 266.082C312.77 267.654 312.77 267.654 312.77 269.258C312.138 272.712 311.056 273.913 308.269 275.997C304.707 276.122 304.707 276.122 301.269 274.997C297.221 269.479 297.853 263.314 297.906 256.774C297.905 255.596 297.905 254.418 297.904 253.204C297.907 250.718 297.916 248.233 297.933 245.747C297.956 241.944 297.953 238.142 297.947 234.339C297.952 231.921 297.959 229.504 297.968 227.087C297.967 225.95 297.966 224.813 297.965 223.642C297.975 222.581 297.985 221.52 297.994 220.426C297.999 219.496 298.004 218.566 298.008 217.608C298.296 214.731 299.004 212.59 300.269 209.997C303.393 207.627 305.619 207.78 309.269 208.997Z" fill="#222940"/>
<path d="M320.269 403.997C323.341 405.708 325.674 407.807 327.269 410.997C327.544 414.635 327.528 417.327 326.207 420.747C323.491 423.901 321.273 424.881 317.269 425.997C314.291 425.919 311.923 425.356 309.269 423.997C306.269 420.772 305.368 418.801 304.832 414.434C305.297 410.777 306.033 408.896 308.269 405.997C312.291 403.316 315.541 403.183 320.269 403.997Z" fill="white"/>
<path d="M179.269 403.997C182.269 406.434 182.269 406.434 184.269 408.997C184.599 409.327 184.929 409.657 185.269 409.997C185.824 414.397 185.802 417.952 183.769 421.934C180.472 424.654 177.517 425.666 173.269 425.997C169.255 425.084 166.708 423.307 164.269 419.997C163.044 416.022 162.828 413.042 164.457 409.184C168.728 404.029 172.603 402.678 179.269 403.997Z" fill="white"/>
</svg>
